
<svg xmlns="http://www.w3.org/2000/svg" version="1.1" xmlns:xlink="http://www.w3.org/1999/xlink" preserveAspectRatio="none" x="0px" y="0px" width="221px" height="260px" viewBox="0 0 221 260">
<defs>
<g id="LOGOFIN_0_Layer0_0_FILL">
<path fill="#5D4784" stroke="none" d="
M 112.5 120
Q 99.05 120 89.5 129.5 80 139.05 80 152.5 80 165.95 89.5 175.45 99.05 185 112.5 185 125.95 185 135.45 175.45 145 165.95 145 152.5 145 139.05 135.45 129.5 125.95 120 112.5 120 Z"/>
</g>

<g id="LOGOFIN_0_Layer0_1_FILL">
<path fill="#6C549B" stroke="none" d="
M 112.5 120
Q 99.05 120 89.5 129.5 80 139.05 80 152.5 80 165.95 89.5 175.45 99.05 185 112.5 185 125.95 185 135.45 175.45 145 165.95 145 152.5 145 139.05 135.45 129.5 125.95 120 112.5 120 Z"/>
</g>

<g id="LOGOFIN_0_Layer0_2_FILL">
<path fill="#8467BF" stroke="none" d="
M 112.5 120
Q 99.05 120 89.5 129.5 80 139.05 80 152.5 80 165.95 89.5 175.45 99.05 185 112.5 185 125.95 185 135.45 175.45 145 165.95 145 152.5 145 139.05 135.45 129.5 125.95 120 112.5 120 Z"/>
</g>

<g id="LOGOFIN_0_Layer0_3_FILL">
<path fill="#3E3059" stroke="none" d="
M 112.5 120
Q 99.05 120 89.5 129.5 80 139.05 80 152.5 80 165.95 89.5 175.45 99.05 185 112.5 185 125.95 185 135.45 175.45 145 165.95 145 152.5 145 139.05 135.45 129.5 125.95 120 112.5 120 Z"/>
</g>

<g id="LOGOFIN_0_Layer0_4_FILL">
<path fill="#241C33" stroke="none" d="
M 112.5 120
Q 99.05 120 89.5 129.5 80 139.05 80 152.5 80 165.95 89.5 175.45 99.05 185 112.5 185 125.95 185 135.45 175.45 145 165.95 145 152.5 145 139.05 135.45 129.5 125.95 120 112.5 120 Z"/>
</g>

<g id="LOGOFIN_0_Layer0_5_FILL">
<path fill="#392C51" stroke="none" d="
M 112.5 120
Q 99.05 120 89.5 129.5 80 139.05 80 152.5 80 165.95 89.5 175.45 99.05 185 112.5 185 125.95 185 135.45 175.45 145 165.95 145 152.5 145 139.05 135.45 129.5 125.95 120 112.5 120 Z"/>
</g>

<g id="LOGOFIN_0_Layer0_6_FILL">
<path fill="#453663" stroke="none" d="
M 112.5 120
Q 99.05 120 89.5 129.5 80 139.05 80 152.5 80 165.95 89.5 175.45 99.05 185 112.5 185 125.95 185 135.45 175.45 145 165.95 145 152.5 145 139.05 135.45 129.5 125.95 120 112.5 120 Z"/>
</g>

<g id="LOGOFIN_0_Layer0_7_FILL">
<path fill="#140F1C" stroke="none" d="
M 112.5 120
Q 99.05 120 89.5 129.5 80 139.05 80 152.5 80 165.95 89.5 175.45 99.05 185 112.5 185 125.95 185 135.45 175.45 145 165.95 145 152.5 145 139.05 135.45 129.5 125.95 120 112.5 120 Z"/>
</g>

<g id="LOGOFIN_0_Layer0_8_FILL">
<path fill="#503F73" stroke="none" d="
M 112.5 120
Q 99.05 120 89.5 129.5 80 139.05 80 152.5 80 165.95 89.5 175.45 99.05 185 112.5 185 125.95 185 135.45 175.45 145 165.95 145 152.5 145 139.05 135.45 129.5 125.95 120 112.5 120 Z"/>
</g>

<g id="LOGOFIN_0_Layer0_9_FILL">
<path fill="#A07DE6" stroke="none" d="
M 112.5 120
Q 99.05 120 89.5 129.5 80 139.05 80 152.5 80 165.95 89.5 175.45 99.05 185 112.5 185 125.95 185 135.45 175.45 145 165.95 145 152.5 145 139.05 135.45 129.5 125.95 120 112.5 120 Z"/>
</g>

<g id="LOGOFIN_0_Layer0_10_FILL">
<path fill="#FFFFFF" stroke="none" d="
M -82.65 43.15
Q -82.05 42.1 -82.05 40.95 -82.05 38.8 -83.5 37.55 -84.95 36.25 -87.45 36.25
L -91.45 36.25 -91.45 51.7 -88 51.7 -88 44.65 -87.9 44.65 -85.1 51.7 -81.4 51.7 -84.2 44.7
Q -83.2 44.2 -82.65 43.15
M -88 42.9
L -88 39.25
Q -86.75 39.3 -86.2 39.75 -85.7 40.25 -85.7 41.3 -85.7 42.85 -88 42.9
M -107.6 36.25
Q -107.75 36.25 -107.9 36.25
L -112.2 36.25 -112.2 51.7 -108.7 51.7 -108.7 45.85 -108.15 45.85
Q -107.85 45.85 -107.6 45.85 -105.5 45.7 -104.25 44.5 -102.85 43.3 -102.85 41.05 -102.85 38.85 -104.25 37.55 -105.5 36.35 -107.6 36.25
M -108.7 39.25
Q -108.05 39.25 -107.6 39.4 -107.2 39.45 -106.95 39.65 -106.4 40.05 -106.4 41.05 -106.4 41.95 -106.95 42.4 -107.2 42.6 -107.6 42.75 -108.05 42.85 -108.7 42.85
L -108.7 39.25
M -69.95 37.95
Q -71.45 40 -71.45 43.7 -71.45 47.75 -69.95 49.95 -68.5 52.05 -65.7 52.05 -62.95 52.05 -61.55 49.95 -60.05 47.75 -60.05 43.9 -60.05 40.05 -61.55 37.95 -63.05 35.8 -65.85 35.8 -68.45 35.8 -69.95 37.95
M -65.85 39.35
Q -63.85 39.35 -63.85 43.85 -63.85 46.65 -64.35 47.65 -64.85 48.55 -65.85 48.55 -66.75 48.55 -67.2 47.65 -67.7 46.65 -67.7 43.8 -67.7 39.35 -65.85 39.35
M -39.45 48.4
Q -38.6 46.65 -38.6 43.85 -38.6 40.1 -40.3 38.15 -42.05 36.25 -45.5 36.25
L -48.7 36.25 -48.7 51.7 -45.3 51.7
Q -43.45 51.7 -41.9 50.95 -40.3 50.1 -39.45 48.4
M -45.25 39.55
Q -44.55 39.6 -44.1 39.65 -43.75 39.8 -43.25 40.3 -42.8 40.8 -42.55 41.7 -42.3 42.65 -42.3 44 -42.3 46.25 -43 47.25 -43.7 48.25 -45.25 48.4
L -45.25 39.55
M -23.95 36.25
L -27.55 36.25 -27.55 45.85
Q -27.55 49.25 -26.45 50.7 -25.25 52.1 -22.45 52.1 -20.6 52.1 -19.55 51.55 -18.5 50.95 -17.9 49.7 -17.35 48.45 -17.35 46.4
L -17.35 36.25 -20.95 36.25 -20.95 47
Q -20.95 47.8 -21.35 48.3 -21.8 48.75 -22.45 48.75 -23.15 48.75 -23.6 48.3 -23.95 47.9 -23.95 47.15
L -23.95 36.25
M -63.2 -39.15
L -77.35 -39.15 -77.35 23.3 -63.2 23.3 -63.2 -2.65 -50.6 -2.65 -50.6 23.3 -36.45 23.3 -36.45 -39.15 -50.6 -39.15 -50.6 -16 -63.2 -16 -63.2 -39.15
M -120.05 -39.15
L -120.05 -24.85 -110.3 -24.85 -110.3 23.3 -95.95 23.3 -95.95 -24.85 -86.2 -24.85 -86.2 -39.15 -120.05 -39.15
M 36.2 36.25
L 32.75 36.25 32.75 51.7 36.2 51.7 36.2 36.25
M 17.5 40.75
Q 18.35 39.5 19.75 39.5 20.6 39.5 21.65 39.8
L 21.65 36.1
Q 20.65 35.8 19.55 35.8 16.6 35.8 14.75 38.1 12.8 40.35 12.8 43.8 12.8 47.5 14.75 49.8 16.6 52.05 19.65 52.05 20.55 52.05 21.65 51.7
L 21.65 48.05
Q 20.65 48.4 19.9 48.4 18.35 48.4 17.5 47.2 16.55 45.95 16.55 43.9 16.55 41.95 17.5 40.75
M 2.6 36.1
Q 1.6 35.8 0.5 35.8 -2.45 35.8 -4.3 38.1 -6.2 40.35 -6.2 43.8 -6.2 47.5 -4.3 49.8 -2.45 52.05 0.6 52.05 1.5 52.05 2.6 51.7
L 2.6 48.05
Q 1.6 48.4 0.85 48.4 -0.7 48.4 -1.55 47.2 -2.5 45.95 -2.5 43.9 -2.5 41.95 -1.55 40.75 -0.7 39.5 0.7 39.5 1.55 39.5 2.6 39.8
L 2.6 36.1
M 49.05 37.95
Q 47.55 40 47.55 43.7 47.55 47.75 49.05 49.95 50.45 52.05 53.25 52.05 56 52.05 57.45 49.95 58.95 47.75 58.95 43.9 58.95 40.05 57.45 37.95 55.95 35.8 53.15 35.8 50.55 35.8 49.05 37.95
M 54.65 47.65
Q 54.15 48.55 53.15 48.55 52.2 48.55 51.75 47.65 51.25 46.65 51.25 43.8 51.25 39.35 53.15 39.35 55.15 39.35 55.15 43.85 55.15 46.65 54.65 47.65
M 81.6 51.7
L 81.6 36.25 78.1 36.25 78.2 45.15 73.75 36.25 70.25 36.25 70.25 51.7 73.75 51.7 73.6 42.9 77.95 51.7 81.6 51.7
M 119.05 36.5
Q 117.55 35.8 116.1 35.8 114.1 35.8 112.8 37.1 111.55 38.35 111.55 40.35 111.55 41.85 112.4 43.05 113.2 44.2 115 45.6 115.75 46.15 116.05 46.6 116.35 46.95 116.35 47.45 116.35 48.05 116 48.4 115.6 48.75 114.95 48.75 113.8 48.75 112.2 47.8
L 112.2 51.35
Q 113.6 52.05 115.05 52.05 117.25 52.05 118.6 50.8 120.05 49.45 120.05 47.45 120.05 45.75 118.95 44.45 117.85 43.15 116.85 42.45 115.1 41.2 115.1 40.25 115.1 39.75 115.5 39.4 115.85 39.05 116.5 39.05 117.5 39.05 119.05 39.9
L 119.05 36.5
M 100.7 36.25
L 93.65 36.25 93.65 51.7 100.75 51.7 100.75 48.4 97.15 48.4 97.15 45.6 100.25 45.6 100.25 42.4 97.15 42.4 97.15 39.55 100.7 39.55 100.7 36.25
M 103.5 -39.15
L 87.55 -39.15 71 23.3 85.45 23.3 87.9 12.85 102.9 12.85 105.3 23.3 120.05 23.3 103.5 -39.15
M 95.05 -23.65
Q 95.1 -24.25 95.2 -24.85
L 95.4 -24.85
Q 95.5 -24.25 95.55 -23.65 97.15 -11.65 100.2 1.65
L 90.45 1.65
Q 93.35 -11.25 95.05 -23.65
M 31.25 -39.15
L 16.95 -39.15 16.95 23.3 31.05 23.3 30.7 -12.15 48.35 23.3 62.9 23.3 62.9 -39.15 48.7 -39.15 48.7 -9.85 49.2 -3.15 31.25 -39.15
M 3.75 -1.4
L 3.75 -14.35 -8.9 -14.35 -8.9 -25.85 5.6 -25.85 5.6 -39.15 -23 -39.15 -23 23.3 5.7 23.3 5.7 10 -8.9 10 -8.9 -1.4 3.75 -1.4 Z"/>
</g>
</defs>

<g transform="matrix( 1, 0, 0, 1, 110.5,130.05) ">
<g transform="matrix( -0.256134033203125, 0.013336181640625, -0.013275146484375, -0.255126953125, 82.25,-73.1) ">
<use xlink:href="#LOGOFIN_0_Layer0_0_FILL"/>
</g>

<g transform="matrix( -0.329254150390625, 0.0171356201171875, -0.0171356201171875, -0.328887939453125, 63,-69.9) ">
<use xlink:href="#LOGOFIN_0_Layer0_1_FILL"/>
</g>

<g transform="matrix( -0.3659515380859375, 0.01904296875, -0.01904296875, -0.3655548095703125, 37.4,-64.15) ">
<use xlink:href="#LOGOFIN_0_Layer0_2_FILL"/>
</g>

<g transform="matrix( -0.2071533203125, 0.010772705078125, -0.0107879638671875, -0.207427978515625, 96.45,-66.65) ">
<use xlink:href="#LOGOFIN_0_Layer0_3_FILL"/>
</g>

<g transform="matrix( 0.2558746337890625, -0.0176849365234375, 0.0176239013671875, 0.254852294921875, -81.55,74.5) ">
<use xlink:href="#LOGOFIN_0_Layer0_4_FILL"/>
</g>

<g transform="matrix( 0.3289031982421875, -0.0227203369140625, 0.022705078125, 0.32855224609375, -62.4,71) ">
<use xlink:href="#LOGOFIN_0_Layer0_5_FILL"/>
</g>

<g transform="matrix( 0.3655548095703125, -0.0252532958984375, 0.0252227783203125, 0.36517333984375, -36.9,64.85) ">
<use xlink:href="#LOGOFIN_0_Layer0_6_FILL"/>
</g>

<g transform="matrix( 0.206939697265625, -0.0142822265625, 0.0142974853515625, 0.2071990966796875, -95.85,68.3) ">
<use xlink:href="#LOGOFIN_0_Layer0_7_FILL"/>
</g>

<g transform="matrix( 0.744781494140625, -0.0514373779296875, 0.0513763427734375, 0.7440185546875, -42.05,-6.15) ">
<use xlink:href="#LOGOFIN_0_Layer0_8_FILL"/>
</g>

<g transform="matrix( 0.744781494140625, -0.0514373779296875, 0.0513763427734375, 0.7440185546875, -138.1,-203.85) ">
<use xlink:href="#LOGOFIN_0_Layer0_9_FILL"/>
</g>

<g transform="matrix( 0.916290283203125, 0, 0, 0.916290283203125, 0,0.55) ">
<use xlink:href="#LOGOFIN_0_Layer0_10_FILL"/>
</g>
</g>
</svg>
