
<svg xmlns="http://www.w3.org/2000/svg" version="1.1" xmlns:xlink="http://www.w3.org/1999/xlink" preserveAspectRatio="none" x="0px" y="0px" width="221px" height="260px" viewBox="0 0 221 260">
<defs>
<g id="LOGOFIN_3_Layer0_0_FILL">
<path fill="#5D4784" stroke="none" d="
M 112.5 120
Q 99.05 120 89.5 129.5 80 139.05 80 152.5 80 165.95 89.5 175.45 99.05 185 112.5 185 125.95 185 135.45 175.45 145 165.95 145 152.5 145 139.05 135.45 129.5 125.95 120 112.5 120 Z"/>
</g>

<g id="LOGOFIN_3_Layer0_1_FILL">
<path fill="#6C549B" stroke="none" d="
M 112.5 120
Q 99.05 120 89.5 129.5 80 139.05 80 152.5 80 165.95 89.5 175.45 99.05 185 112.5 185 125.95 185 135.45 175.45 145 165.95 145 152.5 145 139.05 135.45 129.5 125.95 120 112.5 120 Z"/>
</g>

<g id="LOGOFIN_3_Layer0_2_FILL">
<path fill="#8467BF" stroke="none" d="
M 112.5 120
Q 99.05 120 89.5 129.5 80 139.05 80 152.5 80 165.95 89.5 175.45 99.05 185 112.5 185 125.95 185 135.45 175.45 145 165.95 145 152.5 145 139.05 135.45 129.5 125.95 120 112.5 120 Z"/>
</g>

<g id="LOGOFIN_3_Layer0_3_FILL">
<path fill="#3E3059" stroke="none" d="
M 112.5 120
Q 99.05 120 89.5 129.5 80 139.05 80 152.5 80 165.95 89.5 175.45 99.05 185 112.5 185 125.95 185 135.45 175.45 145 165.95 145 152.5 145 139.05 135.45 129.5 125.95 120 112.5 120 Z"/>
</g>

<g id="LOGOFIN_3_Layer0_4_FILL">
<path fill="#281F38" stroke="none" d="
M 112.5 120
Q 99.05 120 89.5 129.5 80 139.05 80 152.5 80 165.95 89.5 175.45 99.05 185 112.5 185 125.95 185 135.45 175.45 145 165.95 145 152.5 145 139.05 135.45 129.5 125.95 120 112.5 120 Z"/>
</g>

<g id="LOGOFIN_3_Layer0_5_FILL">
<path fill="#392C51" stroke="none" d="
M 112.5 120
Q 99.05 120 89.5 129.5 80 139.05 80 152.5 80 165.95 89.5 175.45 99.05 185 112.5 185 125.95 185 135.45 175.45 145 165.95 145 152.5 145 139.05 135.45 129.5 125.95 120 112.5 120 Z"/>
</g>

<g id="LOGOFIN_3_Layer0_6_FILL">
<path fill="#453663" stroke="none" d="
M 112.5 120
Q 99.05 120 89.5 129.5 80 139.05 80 152.5 80 165.95 89.5 175.45 99.05 185 112.5 185 125.95 185 135.45 175.45 145 165.95 145 152.5 145 139.05 135.45 129.5 125.95 120 112.5 120 Z"/>
</g>

<g id="LOGOFIN_3_Layer0_7_FILL">
<path fill="#1B1426" stroke="none" d="
M 112.5 120
Q 99.05 120 89.5 129.5 80 139.05 80 152.5 80 165.95 89.5 175.45 99.05 185 112.5 185 125.95 185 135.45 175.45 145 165.95 145 152.5 145 139.05 135.45 129.5 125.95 120 112.5 120 Z"/>
</g>

<g id="LOGOFIN_3_Layer0_8_FILL">
<path fill="#503F73" stroke="none" d="
M 112.5 120
Q 99.05 120 89.5 129.5 80 139.05 80 152.5 80 165.95 89.5 175.45 99.05 185 112.5 185 125.95 185 135.45 175.45 145 165.95 145 152.5 145 139.05 135.45 129.5 125.95 120 112.5 120 Z"/>
</g>

<g id="LOGOFIN_3_Layer0_9_FILL">
<path fill="#A07DE6" stroke="none" d="
M 112.5 120
Q 99.05 120 89.5 129.5 80 139.05 80 152.5 80 165.95 89.5 175.45 99.05 185 112.5 185 125.95 185 135.45 175.45 145 165.95 145 152.5 145 139.05 135.45 129.5 125.95 120 112.5 120 Z"/>
</g>

<g id="LOGOFIN_3_Layer0_10_FILL">
<path fill="#121212" stroke="none" d="
M -102.8 33.75
L -102.8 47.9 -99.6 47.9 -99.6 42.55 -99.1 42.55
Q -98.8 42.55 -98.6 42.55 -96.65 42.4 -95.5 41.3 -94.25 40.25 -94.25 38.15 -94.25 36.15 -95.5 34.95 -96.65 33.85 -98.6 33.75 -98.75 33.75 -98.85 33.75
L -102.8 33.75
M -98.6 36.65
Q -98.25 36.7 -98 36.9 -97.5 37.25 -97.5 38.15 -97.5 39 -98 39.4 -98.25 39.6 -98.6 39.7 -99 39.8 -99.6 39.8
L -99.6 36.5
Q -99 36.5 -98.6 36.65
M -65.45 40.6
Q -65.45 44.3 -64.1 46.3 -62.75 48.25 -60.2 48.25 -57.7 48.25 -56.4 46.3 -55 44.3 -55 40.8 -55 37.25 -56.4 35.3 -57.75 33.35 -60.35 33.35 -62.7 33.35 -64.1 35.3 -65.45 37.2 -65.45 40.6
M -61.55 44.2
Q -62.05 43.3 -62.05 40.7 -62.05 36.6 -60.35 36.6 -58.5 36.6 -58.5 40.75 -58.5 43.3 -58.95 44.2 -59.4 45.05 -60.35 45.05 -61.15 45.05 -61.55 44.2
M -76.5 34.95
Q -77.85 33.75 -80.15 33.75
L -83.8 33.75 -83.8 47.9 -80.65 47.9 -80.65 41.45 -80.55 41.45 -78 47.9 -74.6 47.9 -77.15 41.5
Q -76.25 41.05 -75.75 40.1 -75.2 39.15 -75.2 38.05 -75.2 36.1 -76.5 34.95
M -80.65 36.5
Q -79.5 36.55 -79 36.95 -78.55 37.45 -78.55 38.4 -78.55 39.8 -80.65 39.85
L -80.65 36.5
M -36.15 44.9
Q -35.35 43.3 -35.35 40.75 -35.35 37.3 -36.95 35.5 -38.55 33.75 -41.7 33.75
L -44.6 33.75 -44.6 47.9 -41.5 47.9
Q -39.8 47.9 -38.4 47.25 -36.95 46.45 -36.15 44.9
M -39 38.75
Q -38.75 39.65 -38.75 40.85 -38.75 42.95 -39.4 43.85 -40.05 44.75 -41.45 44.9
L -41.45 36.8
Q -40.8 36.85 -40.4 36.9 -40.1 37 -39.65 37.5 -39.2 37.95 -39 38.75
M -21.95 33.75
L -25.25 33.75 -25.25 42.55
Q -25.25 45.7 -24.25 47 -23.15 48.3 -20.55 48.3 -18.9 48.3 -17.9 47.8 -16.95 47.25 -16.4 46.1 -15.9 44.95 -15.9 43.05
L -15.9 33.75 -19.2 33.75 -19.2 43.6
Q -19.2 44.35 -19.55 44.8 -20 45.2 -20.55 45.2 -21.2 45.2 -21.6 44.8 -21.95 44.45 -21.95 43.75
L -21.95 33.75
M -57.9 -35.3
L -70.9 -35.3 -70.9 21.9 -57.9 21.9 -57.9 -1.9 -46.35 -1.9 -46.35 21.9 -33.4 21.9 -33.4 -35.3 -46.35 -35.3 -46.35 -14.1 -57.9 -14.1 -57.9 -35.3
M -110 -22.2
L -101.05 -22.2 -101.05 21.9 -87.9 21.9 -87.9 -22.2 -79 -22.2 -79 -35.3 -110 -35.3 -110 -22.2
M 33.15 33.75
L 30 33.75 30 47.9 33.15 47.9 33.15 33.75
M 2.4 33.65
Q 1.45 33.35 0.45 33.35 -2.25 33.35 -3.95 35.45 -5.7 37.5 -5.7 40.7 -5.7 44.05 -3.95 46.2 -2.25 48.25 0.55 48.25 1.35 48.25 2.4 47.9
L 2.4 44.6
Q 1.45 44.9 0.8 44.9 -0.65 44.9 -1.4 43.8 -2.3 42.65 -2.3 40.8 -2.3 39 -1.4 37.9 -0.65 36.75 0.65 36.75 1.4 36.75 2.4 37
L 2.4 33.65
M 18.1 36.75
Q 18.9 36.75 19.85 37
L 19.85 33.65
Q 18.9 33.35 17.9 33.35 15.2 33.35 13.5 35.45 11.75 37.5 11.75 40.7 11.75 44.05 13.5 46.2 15.2 48.25 18 48.25 18.85 48.25 19.85 47.9
L 19.85 44.6
Q 18.9 44.9 18.25 44.9 16.8 44.9 16.05 43.8 15.15 42.65 15.15 40.8 15.15 39 16.05 37.9 16.8 36.75 18.1 36.75
M 74.75 33.75
L 71.55 33.75 71.65 41.9 67.6 33.75 64.35 33.75 64.35 47.9 67.6 47.9 67.45 39.85 71.4 47.9 74.75 47.9 74.75 33.75
M 48.7 33.35
Q 46.3 33.35 44.95 35.3 43.55 37.2 43.55 40.6 43.55 44.3 44.95 46.3 46.25 48.25 48.8 48.25 51.3 48.25 52.65 46.3 54 44.3 54 40.8 54 37.25 52.65 35.3 51.25 33.35 48.7 33.35
M 47.4 44.2
Q 46.95 43.3 46.95 40.7 46.95 36.6 48.7 36.6 50.55 36.6 50.55 40.75 50.55 43.3 50.1 44.2 49.6 45.05 48.7 45.05 47.85 45.05 47.4 44.2
M 105.85 36.65
Q 106.15 36.35 106.75 36.35 107.65 36.35 109.1 37.1
L 109.1 34
Q 107.7 33.35 106.4 33.35 104.55 33.35 103.35 34.55 102.2 35.7 102.2 37.5 102.2 38.9 103 40 103.7 41.05 105.35 42.35 106.05 42.85 106.35 43.25 106.6 43.55 106.6 44.05 106.6 44.6 106.3 44.9 105.9 45.2 105.35 45.2 104.25 45.2 102.8 44.35
L 102.8 47.6
Q 104.1 48.25 105.4 48.25 107.45 48.25 108.65 47.1 110 45.85 110 44.05 110 42.45 109 41.3 108 40.1 107.05 39.45 105.45 38.3 105.45 37.45 105.45 36.95 105.85 36.65
M 92.25 36.8
L 92.25 33.75 85.8 33.75 85.8 47.9 92.3 47.9 92.3 44.9 89 44.9 89 42.35 91.85 42.35 91.85 39.4 89 39.4 89 36.8 92.25 36.8
M 94.85 -35.3
L 80.2 -35.3 65.05 21.9 78.3 21.9 80.55 12.3 94.3 12.3 96.5 21.9 110 21.9 94.85 -35.3
M 87.4 -22.2
Q 87.5 -21.65 87.55 -21.1 89 -10.1 91.8 2.05
L 82.9 2.05
Q 85.55 -9.75 87.1 -21.1 87.15 -21.65 87.25 -22.2
L 87.4 -22.2
M 5.15 -23.15
L 5.15 -35.3 -21.05 -35.3 -21.05 21.9 5.2 21.9 5.2 9.7 -8.15 9.7 -8.15 -0.75 3.45 -0.75 3.45 -12.6 -8.15 -12.6 -8.15 -23.15 5.15 -23.15
M 28.65 -35.3
L 15.55 -35.3 15.55 21.9 28.45 21.9 28.15 -10.6 44.3 21.9 57.65 21.9 57.65 -35.3 44.6 -35.3 44.6 -8.5 45.1 -2.35 28.65 -35.3 Z"/>
</g>
</defs>

<g transform="matrix( 1, 0, 0, 1, 110.5,130.05) ">
<g transform="matrix( -0.256134033203125, 0.013336181640625, -0.013275146484375, -0.255126953125, 82.25,-73.1) ">
<use xlink:href="#LOGOFIN_3_Layer0_0_FILL"/>
</g>

<g transform="matrix( -0.329254150390625, 0.0171356201171875, -0.0171356201171875, -0.328887939453125, 63,-69.9) ">
<use xlink:href="#LOGOFIN_3_Layer0_1_FILL"/>
</g>

<g transform="matrix( -0.3659515380859375, 0.01904296875, -0.01904296875, -0.3655548095703125, 37.4,-64.15) ">
<use xlink:href="#LOGOFIN_3_Layer0_2_FILL"/>
</g>

<g transform="matrix( -0.2071533203125, 0.010772705078125, -0.0107879638671875, -0.207427978515625, 96.45,-66.65) ">
<use xlink:href="#LOGOFIN_3_Layer0_3_FILL"/>
</g>

<g transform="matrix( 0.2558746337890625, -0.0176849365234375, 0.0176239013671875, 0.254852294921875, -81.55,74.5) ">
<use xlink:href="#LOGOFIN_3_Layer0_4_FILL"/>
</g>

<g transform="matrix( 0.3289031982421875, -0.0227203369140625, 0.022705078125, 0.32855224609375, -62.4,71) ">
<use xlink:href="#LOGOFIN_3_Layer0_5_FILL"/>
</g>

<g transform="matrix( 0.3655548095703125, -0.0252532958984375, 0.0252227783203125, 0.36517333984375, -36.9,64.85) ">
<use xlink:href="#LOGOFIN_3_Layer0_6_FILL"/>
</g>

<g transform="matrix( 0.206939697265625, -0.0142822265625, 0.0142974853515625, 0.2071990966796875, -95.85,68.3) ">
<use xlink:href="#LOGOFIN_3_Layer0_7_FILL"/>
</g>

<g transform="matrix( 0.53668212890625, -0.0370330810546875, 0.0370025634765625, 0.535919189453125, -23.15,30.95) ">
<use xlink:href="#LOGOFIN_3_Layer0_8_FILL"/>
</g>

<g transform="matrix( 0.53668212890625, -0.0370330810546875, 0.0370025634765625, 0.535919189453125, -108.85,-185.05) ">
<use xlink:href="#LOGOFIN_3_Layer0_9_FILL"/>
</g>

<g transform="matrix( 1, 0, 0, 1, 0,0) ">
<use xlink:href="#LOGOFIN_3_Layer0_10_FILL"/>
</g>
</g>
</svg>
